<svg width="71" height="92" viewBox="0 0 71 92" fill="none" xmlns="http://www.w3.org/2000/svg">
<path fill-rule="evenodd" clip-rule="evenodd" d="M24.8961 10.6991C24.8961 4.84273 29.6437 0.0952148 35.5 0.0952148C41.3564 0.0952148 46.1039 4.84274 46.1039 10.6991V67.5606C46.1039 73.417 41.3564 78.1645 35.5 78.1645C29.6437 78.1645 24.8961 73.417 24.8961 67.5606V10.6991ZM0 23.6082C0 17.7518 4.74753 13.0043 10.6039 13.0043C16.4603 13.0043 21.2078 17.7518 21.2078 23.6082V80.4697C21.2078 86.326 16.4603 91.0735 10.6039 91.0735C4.74753 91.0735 0 86.326 0 80.4696V23.6082ZM60.3961 27.1428C54.5397 27.1428 49.7922 31.8903 49.7922 37.7467V80.4696C49.7922 86.326 54.5397 91.0735 60.3961 91.0735C66.2524 91.0735 71 86.326 71 80.4696V37.7467C71 31.8903 66.2524 27.1428 60.3961 27.1428Z" fill="url(#paint0_linear_2001_242)"/>
<circle cx="60.3961" cy="14.3875" r="10.6039" fill="url(#paint1_linear_2001_242)"/>
<defs>
<linearGradient id="paint0_linear_2001_242" x1="35.5" y1="0.0952148" x2="35.5" y2="91.0736" gradientUnits="userSpaceOnUse">
<stop stop-color="#007FFF"/>
<stop offset="1" stop-color="#004C99"/>
</linearGradient>
<linearGradient id="paint1_linear_2001_242" x1="60.3961" y1="3.78357" x2="60.3961" y2="24.9914" gradientUnits="userSpaceOnUse">
<stop stop-color="#8BC926"/>
<stop offset="1" stop-color="#446313"/>
</linearGradient>
</defs>
</svg>
