<svg width="108" height="35" viewBox="0 0 108 35" fill="none" xmlns="http://www.w3.org/2000/svg">
<path fill-rule="evenodd" clip-rule="evenodd" d="M9.49398 4.04376C9.49398 1.81044 11.3044 0 13.5377 0C15.771 0 17.5815 1.81044 17.5815 4.04376V25.7276C17.5815 27.9608 15.771 29.7713 13.5377 29.7713C11.3044 29.7713 9.49398 27.9608 9.49398 25.7275V4.04376ZM0 8.96654C0 6.73324 1.81044 4.92282 4.04376 4.92282C6.27705 4.92282 8.08748 6.73327 8.08748 8.96654V30.6504C8.08748 32.8837 6.27705 34.6942 4.04376 34.6942C1.81044 34.6942 0 32.8837 0 30.6504V8.96654ZM23.0318 10.3145C20.7985 10.3145 18.988 12.1249 18.988 14.3582V30.6504C18.988 32.8837 20.7985 34.6942 23.0318 34.6942C25.265 34.6942 27.0755 32.8837 27.0755 30.6504V14.3582C27.0755 12.1249 25.265 10.3145 23.0318 10.3145Z" fill="url(#paint0_linear_433_10103)"/>
<path d="M23.0317 9.49242C25.265 9.49242 27.0754 7.68197 27.0754 5.44866C27.0754 3.21536 25.265 1.40491 23.0317 1.40491C20.7984 1.40491 18.9879 3.21536 18.9879 5.44866C18.9879 7.68197 20.7984 9.49242 23.0317 9.49242Z" fill="url(#paint1_linear_433_10103)"/>
<path d="M32.7226 33.3474C31.1166 33.3474 30.3135 32.5162 30.3135 30.8538V15.5119C30.3135 13.8495 31.032 13.0184 32.469 13.0184C33.8779 13.0184 34.6245 13.3846 34.709 14.1172L34.8781 15.4697C35.2726 14.6244 35.9347 13.92 36.8645 13.3565C37.7943 12.7929 38.8651 12.5112 40.0766 12.5112C41.4009 12.5112 42.5559 12.8211 43.5422 13.441C44.5285 14.0609 45.2892 14.9484 45.8245 16.1036C46.3597 15.0611 47.1347 14.2017 48.149 13.5255C49.1914 12.8493 50.3748 12.5112 51.6992 12.5112C53.6998 12.5112 55.3059 13.2156 56.5173 14.6244C57.7572 16.005 58.3769 17.9633 58.3769 20.4991V30.8538C58.3769 32.5162 57.5881 33.3474 56.0101 33.3474C54.376 33.3474 53.5588 32.5162 53.5588 30.8538V21.598C53.5588 20.1046 53.291 18.9353 52.7558 18.0901C52.2206 17.2448 51.4737 16.8221 50.5158 16.8221C49.3043 16.8221 48.3603 17.2589 47.6841 18.1323C47.0359 19.0058 46.712 20.2455 46.712 21.8516V30.8538C46.712 32.5162 45.9232 33.3474 44.3452 33.3474C42.7392 33.3474 41.9362 32.5162 41.9362 30.8538V21.598C41.9362 20.1046 41.6545 18.9353 41.0909 18.0901C40.5273 17.2448 39.7665 16.8221 38.8086 16.8221C37.6252 16.8221 36.7096 17.2729 36.0615 18.1746C35.4133 19.048 35.0894 20.2737 35.0894 21.8516V30.8538C35.0894 32.5162 34.3006 33.3474 32.7226 33.3474ZM67.7652 33.8123C64.8067 33.8123 62.4118 32.9248 60.5803 31.1497C58.7487 29.3464 57.8331 26.6838 57.8331 23.1617C57.8331 20.964 58.2416 19.0762 59.0588 17.4984C59.876 15.8923 61.0171 14.6667 62.4822 13.8214C63.9472 12.9479 65.6239 12.5112 67.5116 12.5112C69.3993 12.5112 71.0053 12.9479 72.3297 13.8214C73.6541 14.6948 74.6684 15.8219 75.3727 17.2025C76.077 18.5831 76.4293 20.0201 76.4293 21.5134C76.4293 22.556 76.218 23.2463 75.7954 23.5844C75.3727 23.8943 74.753 24.0493 73.9358 24.0493H62.5244C62.637 26.078 63.1726 27.5291 64.1305 28.4025C65.0884 29.2478 66.3282 29.6704 67.8497 29.6704C69.5684 29.6704 70.9069 29.0787 71.8648 27.8953C72.4284 27.3036 72.9495 26.9233 73.4286 26.7542C73.9358 26.557 74.471 26.6556 75.0346 27.0501C75.5983 27.4445 75.9222 27.9517 76.0067 28.5716C76.0912 29.1914 75.8376 29.8395 75.2459 30.5157C74.2881 31.6709 73.1892 32.5162 71.9493 33.0516C70.7095 33.5587 69.3148 33.8123 67.7652 33.8123ZM62.7358 20.3723H71.738C71.5125 19.048 71.0195 18.0337 70.2588 17.3293C69.5261 16.5967 68.5824 16.2304 67.4271 16.2304C66.1872 16.2304 65.159 16.5685 64.3418 17.2448C63.553 17.921 63.0174 18.9635 62.7358 20.3723ZM78.6898 33.3474C77.0838 33.3474 76.2808 32.5162 76.2808 30.8538V15.5119C76.2808 13.8495 77.1118 13.0184 78.7743 13.0184C79.338 13.0184 79.8309 13.1592 80.2536 13.441C80.6762 13.6946 80.8876 14.1877 80.8876 14.9202V15.8923C81.3947 14.878 82.1835 14.0609 83.2543 13.441C84.3532 12.8211 85.5085 12.5112 86.72 12.5112C87.5934 12.5112 88.2557 12.7507 88.7064 13.2297C89.1855 13.6805 89.4249 14.3004 89.4249 15.0893C89.4249 15.8219 89.2416 16.3572 88.8755 16.6953C88.5093 17.0334 88.0867 17.1743 87.6075 17.118C87.382 17.0898 87.1426 17.0757 86.8891 17.0757C86.6355 17.0475 86.3538 17.0334 86.0438 17.0334C84.6633 17.0334 83.4799 17.4843 82.4936 18.3859C81.5357 19.2875 81.0566 20.5555 81.0566 22.1897V30.8538C81.0566 32.5162 80.2678 33.3474 78.6898 33.3474ZM90.8127 33.3474C89.2347 33.3474 88.4459 32.5162 88.4459 30.8538V15.5119C88.4459 13.8495 89.2347 13.0184 90.8127 13.0184C92.3907 13.0184 93.1795 13.8495 93.1795 15.5119V30.8538C93.1795 32.5162 92.3907 33.3474 90.8127 33.3474ZM90.7704 9.67949C89.9532 9.67949 89.2489 9.38364 88.6572 8.79194C88.0655 8.20024 87.7697 7.49585 87.7697 6.67873C87.7697 5.86162 88.0655 5.15722 88.6572 4.56553C89.2489 3.97383 89.9532 3.67798 90.7704 3.67798C91.5876 3.67798 92.2919 3.97383 92.8836 4.56553C93.4753 5.15722 93.7712 5.86162 93.7712 6.67873C93.7712 7.49585 93.4753 8.20024 92.8836 8.79194C92.2919 9.38364 91.5876 9.67949 90.7704 9.67949ZM102.591 33.8123C100.59 33.8123 99.0545 33.4461 97.9837 32.7134C96.9413 31.9809 96.42 30.5157 96.42 28.318V17.118H95.0252C93.3627 17.118 92.5317 16.4277 92.5317 15.047C92.5317 14.399 92.7007 13.9059 93.0388 13.5678C93.405 13.2015 94.0532 13.0184 94.983 13.0184H96.42V8.3693C96.42 6.7069 97.223 5.87571 98.829 5.87571C100.379 5.87571 101.154 6.7069 101.154 8.3693V13.0184H104.281C105.944 13.0184 106.775 13.6946 106.775 15.047C106.775 16.4277 105.957 17.118 104.323 17.118H101.154V27.0923C101.154 28.0503 101.379 28.6984 101.83 29.0365C102.309 29.3746 102.985 29.5436 103.858 29.5436C104.76 29.5436 105.464 29.6563 105.972 29.8817C106.507 30.079 106.775 30.6143 106.775 31.4878C106.775 32.1922 106.563 32.7134 106.141 33.0516C105.746 33.3616 105.225 33.5587 104.577 33.6433C103.957 33.7559 103.295 33.8123 102.591 33.8123Z" fill="#323232"/>
<defs>
<linearGradient id="paint0_linear_433_10103" x1="13.5377" y1="0" x2="13.5377" y2="34.6942" gradientUnits="userSpaceOnUse">
<stop stop-color="#007FFF"/>
<stop offset="1" stop-color="#004C99"/>
</linearGradient>
<linearGradient id="paint1_linear_433_10103" x1="23.0317" y1="1.40493" x2="23.0317" y2="9.49242" gradientUnits="userSpaceOnUse">
<stop stop-color="#8BC926"/>
<stop offset="1" stop-color="#446313"/>
</linearGradient>
</defs>
</svg>
